<?xml version="1.0" encoding="UTF-8" standalone="no"?><!DOCTYPE svg PUBLIC "-//W3C//DTD SVG 1.1//EN" "http://www.w3.org/Graphics/SVG/1.1/DTD/svg11.dtd"><svg width="100%" height="100%" viewBox="0 0 5000 1667" version="1.1" xmlns="http://www.w3.org/2000/svg" xmlns:xlink="http://www.w3.org/1999/xlink" xml:space="preserve" xmlns:serif="http://www.serif.com/" style="fill-rule:evenodd;clip-rule:evenodd;stroke-linecap:round;stroke-linejoin:round;"><text x="137.5px" y="281.25px" style="font-family:'Roboto-Regular', 'Roboto';font-size:208.333px;">Linos.St<tspan x="885.791px 1004.61px 1073.17px " y="281.25px 281.25px 281.25px ">ore</tspan></text><text x="120.833px" y="541.667px" style="font-family:'Roboto-Bold', 'Roboto';font-weight:700;font-size:300px;">E-Commer<tspan x="1560.04px " y="541.667px ">c</tspan>e Demo</text><text x="866.667px" y="1414.58px" style="font-family:'Roboto-Regular', 'Roboto';font-size:125px;">F<tspan x="934.172px 975.248px " y="1414.58px 1414.58px ">ro</tspan>nt Headless</text><text x="2583.33px" y="1418.75px" style="font-family:'Roboto-Regular', 'Roboto';font-size:125px;">API Rest</text><text x="125px" y="722.917px" style="font-family:'Roboto-Regular', 'Roboto';font-size:191.667px;">Built with</text><text x="4037.5px" y="1558.33px" style="font-family:'Roboto-Regular', 'Roboto';font-size:100px;">b<tspan x="4093.07px " y="1558.33px ">y</tspan> P<tspan x="4227.69px " y="1558.33px ">a</tspan>trick Genitrini</text><path d="M873.842,1254.25c3.304,0 6.118,-2.739 6.118,-6.118l0,-142.244c0,-0 7.648,13.765 21.413,36.708l59.651,102.477c2.731,5.721 8.786,9.177 13.766,9.177l41.297,0l-0,-229.427l-41.297,0c-2.75,0 -6.118,2.286 -6.118,6.118l-0,143.775l-27.531,-48.945l-55.063,-93.3c-2.679,-4.755 -8.444,-7.648 -13.765,-7.648l-39.768,0l0,229.427l41.297,0Z" style="fill-rule:nonzero;"/><path d="M1407.64,1089.06l19.884,-0c5.069,-0 9.177,-4.109 9.177,-9.177l0,-39.768l42.827,0l-0,48.945l41.296,-0l0,36.708l-41.296,0l-0,65.769c-0,16.06 7.734,22.943 21.413,22.943l19.883,0l0,39.767l-26.001,0c-35.259,0 -58.122,-22.834 -58.122,-61.18l0,-67.299l-29.061,0l0,-36.708Z" style="fill-rule:nonzero;"/><path d="M1201.16,1089.06l0,94.83c0,21.419 -8.042,39.475 -19.884,52.003c-11.841,12.528 -28.195,18.354 -50.474,18.354c-22.278,0 -40.162,-5.826 -52.003,-18.354c-11.641,-12.528 -19.884,-30.584 -19.884,-52.003l0,-94.83l24.473,-0c5.218,-0 10.353,0.951 13.765,4.588c3.412,3.436 4.589,5.453 4.589,10.707l-0,79.535c-0,12.326 0.699,19.94 6.118,26.002c5.419,5.859 12.104,7.647 22.942,7.647c11.039,0 15.995,-1.788 21.414,-7.647c5.419,-6.062 6.118,-13.676 6.118,-26.002l-0,-79.535c-0,-5.254 1.176,-8.599 4.588,-12.236c2.998,-3.196 6.161,-3.12 10.707,-3.059c0.628,0.008 2.426,-0 3.059,-0l24.472,-0Z" style="fill-rule:nonzero;"/><path d="M1331.17,1168.59l52.003,-79.535l-39.767,-0c-5.012,-0 -9.465,1.798 -12.236,6.118l-24.472,36.708l-22.943,-35.179c-2.772,-4.319 -8.754,-7.647 -13.766,-7.647l-38.238,-0l52.004,78.005l-56.592,87.182l39.767,0c4.971,0 9.456,-4.914 12.236,-9.177l27.532,-41.297l29.06,42.827c2.781,4.263 7.265,7.647 12.236,7.647l39.768,0l-56.592,-85.652Z" style="fill-rule:nonzero;"/><path d="M558.118,1412.58l228.36,-0c7.286,-0 14.261,-2.56 20.572,-6.172c6.312,-3.613 12.817,-8.145 16.459,-14.401c3.641,-6.256 6.176,-13.352 6.172,-20.575c-0.004,-7.223 -2.525,-14.317 -6.172,-20.569l-154.297,-265.393c-3.642,-6.254 -8.091,-10.79 -14.401,-14.401c-6.31,-3.611 -15.343,-6.172 -22.63,-6.172c-7.287,0 -14.264,2.561 -20.573,6.172c-6.31,3.611 -10.76,8.147 -14.401,14.401l-39.089,67.891l-78.177,-131.672c-3.645,-6.253 -8.089,-12.843 -14.401,-16.453c-6.312,-3.61 -13.286,-4.115 -20.573,-4.115c-7.287,0 -14.261,0.505 -20.573,4.115c-6.311,3.61 -12.813,10.2 -16.458,16.453l-191.328,329.174c-3.648,6.252 -4.112,13.346 -4.115,20.569c-0.003,7.223 0.473,14.319 4.115,20.575c3.642,6.254 10.147,10.788 16.458,14.401c6.311,3.612 13.286,6.172 20.573,6.172l144.01,-0c57.063,-0 98.596,-25.597 127.552,-74.063l69.948,-121.38l37.032,-63.776l113.151,193.385l-150.183,0l-37.031,65.834Zm-162.526,-65.834l-100.807,0l150.182,-259.218l76.12,129.609l-50.422,87.898c-19.23,31.446 -41.152,41.711 -75.073,41.711Z" style="fill:#00dc82;fill-rule:nonzero;"/><circle cx="2298.28" cy="1218.2" r="253.979" style="fill:#1a171b;"/><path d="M2409.32,1058.2c-25.801,0.9 -48.323,15.119 -65.085,34.792c-18.562,21.568 -30.911,47.15 -39.809,73.264c-15.917,-13.046 -28.195,-29.933 -53.73,-37.297c-19.736,-5.666 -40.466,-3.326 -59.529,10.877c-9.031,6.746 -15.252,16.943 -18.211,26.529c-7.661,24.909 8.053,47.079 15.19,55.037l15.604,16.724c3.216,3.279 10.964,11.832 7.176,24.095c-4.093,13.334 -20.166,21.966 -36.655,16.879c-7.364,-2.246 -17.944,-7.731 -15.573,-15.455c0.978,-3.162 3.24,-5.525 4.453,-8.256c1.111,-2.348 1.643,-4.109 1.98,-5.142c3.013,-9.836 -1.104,-22.631 -11.637,-25.879c-9.829,-3.013 -19.885,-0.626 -23.782,12.028c-4.421,14.376 2.458,40.466 39.308,51.829c43.174,13.264 79.696,-10.244 84.876,-40.904c3.264,-19.204 -5.407,-33.47 -21.293,-51.821l-12.944,-14.313c-7.841,-7.834 -10.533,-21.184 -2.418,-31.443c6.848,-8.656 16.598,-12.349 32.57,-8.006c23.313,6.331 33.705,22.506 51.047,35.552c-7.161,23.484 -11.84,47.055 -16.074,68.192l-2.582,15.76c-12.396,65.015 -21.857,100.716 -46.445,121.211c-4.954,3.521 -12.036,8.796 -22.71,9.164c-5.595,0.172 -7.403,-3.678 -7.481,-5.353c-0.133,-3.929 3.177,-5.728 5.376,-7.497c3.287,-1.792 8.256,-4.766 7.919,-14.29c-0.36,-11.253 -9.68,-21.011 -23.156,-20.565c-10.095,0.344 -25.48,9.844 -24.901,27.233c0.603,17.96 17.342,31.42 42.579,30.567c13.492,-0.462 43.62,-5.956 73.31,-41.249c34.558,-40.458 44.223,-86.841 51.493,-120.788l8.115,-44.817c4.507,0.54 9.328,0.9 14.571,1.025c43.041,0.908 64.569,-21.387 64.89,-37.602c0.211,-9.813 -6.441,-19.47 -15.753,-19.251c-6.668,0.188 -15.041,4.625 -17.052,13.844c-1.964,9.046 13.695,17.208 1.455,25.136c-8.694,5.626 -24.282,9.594 -46.233,6.37l3.991,-22.061c8.146,-41.835 18.194,-93.296 56.313,-94.548c2.778,-0.141 12.943,0.125 13.178,6.847c0.071,2.246 -0.485,2.817 -3.114,7.959c-2.677,4.006 -3.686,7.418 -3.561,11.339c0.368,10.682 8.491,17.701 20.237,17.279c15.729,-0.509 20.252,-15.824 19.994,-23.688c-0.634,-18.476 -20.111,-30.152 -45.897,-29.307Z" style="fill:#fff;fill-rule:nonzero;"/><path d="M4413.39,446.464c62.808,65.031 64.085,165.842 2.852,224.983c-61.234,59.141 -161.94,54.36 -224.748,-10.671c-62.808,-65.03 -64.086,-165.841 -2.852,-224.982c61.234,-59.141 161.94,-54.36 224.748,10.67Z" style="fill:#1a171b;"/><path d="M4008.62,633.403l88.249,58.895c2.816,1.879 6.171,2.689 9.542,2.92c3.371,0.232 7.053,0.158 10.074,-1.32c3.021,-1.479 5.83,-3.567 7.691,-6.36c1.862,-2.792 2.717,-6.183 2.92,-9.54l8.818,-142.353c0.206,-3.356 -0.344,-6.257 -1.851,-9.28c-1.507,-3.022 -4.337,-6.342 -7.153,-8.221c-2.816,-1.879 -6.173,-2.689 -9.542,-2.921c-3.37,-0.232 -6.26,0.373 -9.28,1.851l-32.615,16.155l3.748,-71.046c0.204,-3.357 0.186,-7.049 -1.322,-10.072c-1.508,-3.023 -4.073,-5.017 -6.889,-6.896c-2.816,-1.879 -5.641,-3.483 -9.012,-3.716c-3.37,-0.232 -7.582,0.637 -10.603,2.114l-158.833,77.863c-3.022,1.476 -5.031,4.098 -6.895,6.888c-1.864,2.791 -3.51,5.655 -3.716,9.012c-0.206,3.357 1.139,6.787 2.646,9.81c1.507,3.024 3.542,5.812 6.359,7.691l55.652,37.141c22.052,14.717 44.703,15.536 68.393,4.275l58.335,-28.867l30.759,-15.096l-6.148,103.915l-58.038,-38.732l-31.289,15.89Zm-45.829,-67.357l-38.956,-25.998l124.89,-61.442l-4.01,69.719l-42.155,20.963c-15.541,7.193 -26.66,5.506 -39.769,-3.242Z" style="fill:#00dc82;fill-rule:nonzero;"/><path d="M4317.61,420.693c-14.263,8.589 -22.737,23.21 -26.352,38.912c-4.069,17.273 -3.45,34.721 -0.729,51.366c-12.826,-1.913 -24.74,-7.008 -41.3,-2.885c-12.792,3.201 -23.774,10.959 -30.304,24.484c-3.089,6.417 -3.574,13.78 -2.402,19.793c3.06,15.617 18.473,22.433 24.848,24.409l13.738,3.962c2.782,0.728 9.678,2.828 11.175,10.521c1.643,8.358 -4.854,17.989 -15.645,20.476c-4.812,1.124 -12.394,1.541 -13.346,-3.3c-0.385,-1.984 0.189,-3.948 0.064,-5.778c-0.07,-1.594 -0.291,-2.695 -0.407,-3.349c-1.216,-6.163 -7.322,-11.654 -14.215,-10.064c-6.427,1.492 -11.384,5.92 -9.832,13.855c1.766,9.013 13.364,20.686 37.48,15.125c28.24,-6.54 41.848,-30.488 35.689,-48.376c-3.848,-11.209 -12.954,-16.048 -27.333,-20.784l-11.527,-3.521c-6.735,-1.688 -12.203,-7.921 -10.67,-15.913c1.294,-6.742 5.691,-11.767 15.972,-14.485c15.002,-3.973 25.644,1.337 39.272,2.803c2.92,14.704 7.262,28.675 11.136,41.214l3.211,9.169c12.267,38.373 17.508,60.279 9.729,78.878c-1.747,3.424 -4.174,8.448 -10.077,11.999c-3.1,1.85 -5.257,0.377 -5.797,-0.486c-1.238,-2.042 0.093,-4.037 0.808,-5.666c1.32,-1.984 3.238,-5.123 0.229,-10.067c-3.534,-5.855 -11.671,-8.099 -19.128,-3.626c-5.583,3.357 -11.435,13.232 -5.961,22.27c5.656,9.334 19.068,11.209 33.028,2.822c7.461,-4.486 22.801,-16.872 29.073,-44.922c7.483,-32.319 -0.805,-59.953 -6.761,-80.24l-8.698,-26.317c2.698,-1.13 5.52,-2.455 8.509,-4.037c24.508,-13.051 30.031,-31.642 25.411,-40.341c-2.786,-5.27 -9.391,-8.3 -14.57,-5.255c-3.699,2.195 -7.101,7.181 -5.505,12.702c1.572,5.414 12.807,4.819 8.261,12.871c-3.23,5.717 -10.834,12.722 -24.15,17.914l-4.284,-12.953c-7.797,-24.746 -17.374,-55.193 3.722,-67.842c1.523,-0.948 7.326,-4.003 9.449,-0.512c0.704,1.169 0.56,1.646 0.602,5.199c-0.321,2.966 0.12,5.093 1.352,7.133c3.369,5.548 10.022,6.717 16.511,2.8c8.708,-5.215 6.721,-14.758 4.248,-18.848c-5.827,-9.598 -20.253,-9.665 -34.524,-1.11Z" style="fill:#fff;fill-rule:nonzero;"/><path d="M3250.86,1104.37c43.046,-0 71.93,31.116 71.93,74.163c-0,40.56 -29.442,74.157 -71.93,74.157c-42.788,0 -72.224,-33.597 -72.224,-74.157c-0,-43.047 28.878,-74.163 72.224,-74.163Zm-0,127.234c30.535,0 44.145,-27.779 44.145,-53.071c0,-26.933 -16.384,-53.043 -44.145,-53.043c-28.067,0 -44.451,26.11 -44.451,53.043c0.006,25.287 13.61,53.071 44.451,53.071Zm-75.804,-114.05l0,-9.858l-37.51,0l0,-13.472c0,-19.164 2.78,-33.62 25.27,-33.62c0.414,-0 0.857,0.029 1.289,0.046c0.046,-0 0.04,-0.069 0.092,-0.069c6.244,0.46 11.435,-4.627 11.786,-10.86l0.46,-8.551c-5.265,-0.841 -10.842,-1.669 -17.489,-1.669c-38.609,-0 -47.506,22.501 -47.506,56.95l-0,11.251l-33.35,-0l0,11.009c0.858,5.697 5.732,10.082 11.688,10.082c0.035,0 0.052,0.029 0.092,0.029l21.57,0l-0,120.548l14.387,-0l0.034,-0.006c5.985,-0 10.889,-4.483 11.683,-10.238l-0,-110.304l26.115,0c6.121,-0.211 11.112,-5.15 11.389,-11.268Zm-347.796,-9.858c-0.046,0 -0.074,0.035 -0.138,0.035c-5.501,-0 -10.83,3.781 -13.155,8.891l-35.934,108.307l-0.552,-0l-35.14,-108.25c-2.296,-5.139 -7.648,-8.948 -13.184,-8.948c-0.063,-0 -0.086,-0.035 -0.138,-0.035l-18.209,0l48.059,132.23c1.675,4.725 5.013,11.953 5.013,14.997c-0,2.78 -7.786,34.99 -31.128,34.99c-0.576,-0 -1.157,-0.052 -1.727,-0.098c-5.95,-0.328 -10.445,3.827 -11.446,10.238l-0.714,9.035c4.719,0.834 9.467,1.945 17.794,1.945c34.438,0 44.71,-31.393 54.441,-58.613l52.214,-144.73l-16.056,0l0,0.006Zm-165.988,28.774c-21.563,-11.032 -45.158,-18.519 -45.567,-40.721c0.069,-23.578 21.731,-29.764 38.426,-29.747c0.069,-0.012 0.138,-0.012 0.178,-0.012c7.251,0 13.052,0.72 18.709,1.957c0.075,0 0.063,-0.092 0.156,-0.092c5.979,0.437 10.997,-4.241 11.705,-10.14l0.478,-8.563c-10.946,-2.722 -22.381,-4.098 -32.337,-4.098c-36.308,0.225 -63.258,18.491 -63.344,53.336c0.052,30.478 20.591,42.293 42.678,52.986c21.662,10.416 45.395,19.019 45.602,44.162c-0.132,26.243 -25.454,35.917 -42.903,35.951c-10.203,-0.034 -21.281,-2.584 -30.616,-5.524c-5.852,-0.967 -10.652,4.195 -11.406,11.032l-0.794,7.636c12.833,4.144 25.995,7.758 39.219,7.758l0.156,-0c40.658,-0.294 72.264,-16.511 72.385,-58.614c-0.064,-32.486 -20.741,-46.131 -42.725,-57.307Zm394.917,112.894l0.035,-0.006c5.64,0 10.336,-3.954 11.533,-9.231l-0,-81.587c-0,-30.834 -13.047,-54.17 -49.182,-54.17c-12.77,-0 -34.149,7.234 -43.869,27.502c-7.516,-19.169 -23.883,-27.502 -40.284,-27.502c-20.827,-0 -35.001,7.498 -44.98,23.894l-0.57,-0l0,-8.816c-0.069,-6.443 -5.383,-11.708 -11.826,-11.717c-0.046,-0 -0.081,-0.035 -0.127,-0.035l-12.482,0l-0,141.668l14.134,-0l0.034,-0.006c6.5,-0.003 11.847,-5.35 11.85,-11.849c-0,-0.173 0.063,-0.242 0.092,-0.363l-0,-59.16c-0,-26.386 10.554,-52.496 37.217,-52.496c21.114,0 25.298,21.932 25.298,39.438l-0,84.442l14.33,-0l0.04,-0.006c6.077,-0.016 11.198,-4.725 11.723,-10.779l-0,-60.599c-0,-26.386 10.56,-52.496 37.222,-52.496c21.103,0 25.281,21.932 25.281,39.438l0,84.442l14.531,-0l0,-0.006Zm403.492,-0l0.046,-0.006c6.283,-0.009 11.516,-5.026 11.792,-11.303l-0,-72.856c-0,-38.046 -16.402,-60.835 -53.072,-60.835c-19.716,-0 -38.586,9.731 -46.378,25.845l-0.559,0l0,-10.583c0,-0.006 -0.023,-0.006 -0.023,-0.035c0,-0.007 0,-0.015 0,-0.023c0,-6.494 -5.343,-11.837 -11.837,-11.837c-0.002,-0 -0.004,-0 -0.006,-0c-0.063,-0 -0.086,-0.035 -0.127,-0.035l-13.299,0l-0,141.668l14.347,-0l0.04,-0.006c6.123,-0.018 11.266,-4.8 11.728,-10.905l0,-54.643c0,-34.437 13.346,-58.326 43.058,-58.326c22.79,1.382 29.989,17.484 29.989,50.545l0,73.329l14.301,0l-0,0.006Zm140.58,-141.668c-0.063,0 -0.081,0.035 -0.15,0.035c-5.49,-0 -10.836,3.781 -13.138,8.891l-35.922,108.307l-0.587,-0l-35.128,-108.25c-2.307,-5.139 -7.659,-8.948 -13.196,-8.948c-0.04,-0 -0.086,-0.035 -0.12,-0.035l-18.209,0l48.059,132.23c1.675,4.725 5.024,11.953 5.024,14.997c0,2.78 -7.798,34.99 -31.134,34.99c-0.587,-0 -1.156,-0.052 -1.732,-0.098c-5.945,-0.328 -10.445,3.827 -11.452,10.238l-0.702,9.035c4.719,0.834 9.466,1.945 17.788,1.945c34.437,0 44.727,-31.393 54.453,-58.613l52.219,-144.73l-16.073,0l0,0.006Z" style="fill:#1a171b;fill-rule:nonzero;"/><g><path d="M3734.89,166.7l103.125,-0l82.5,495c11.307,46.799 53.956,79.755 102.094,78.89l404.25,0c51.139,-0.007 94.935,-38.052 102.094,-88.687l82.5,-278.953l-721.875,-0" style="fill:none;fill-rule:nonzero;stroke:#000;stroke-width:82.5px;"/><circle cx="4044.27" cy="1043.26" r="82.5"/><circle cx="4508.33" cy="1043.26" r="82.5"/></g></svg>